<svg xmlns="http://www.w3.org/2000/svg" width="23" height="23" viewBox="0 0 23 23" fill="none">
  <path d="M1 1.00247V7.5642H1.76387M1.76387 7.5642C2.63518 5.40949 4.19683 3.60473 6.2041 2.43274C8.21137 1.26076 10.5508 0.787786 12.8558 1.08795C15.1607 1.38812 17.301 2.44447 18.941 4.09144C20.5811 5.73841 21.6284 7.88292 21.9186 10.1889M1.76387 7.5642H7.5625M22 22V15.4383H21.2374M21.2374 15.4383C20.3649 17.5917 18.8028 19.3951 16.7957 20.566C14.7886 21.7369 12.4499 22.2093 10.1456 21.9093C7.84136 21.6092 5.70163 20.5536 4.06145 18.9078C2.42127 17.2619 1.37322 15.1186 1.08137 12.8136M21.2374 15.4383H15.4375" stroke="#F8F8F8" stroke-width="2" stroke-linecap="round" stroke-linejoin="round"/>
</svg>