<svg width="10" height="10" viewBox="0 0 10 10" fill="none" xmlns="http://www.w3.org/2000/svg">
<path d="M8 5.05556C8 6.74309 6.63198 8.11111 4.94444 8.11111C3.25691 8.11111 1.88889 6.74309 1.88889 5.05556C1.88889 3.36802 3.25691 2 4.94444 2C6.63198 2 8 3.36802 8 5.05556Z" fill="#F1F1F1"/>
<path d="M5 0C4.01109 0 3.0444 0.293245 2.22215 0.842652C1.39991 1.39206 0.759043 2.17295 0.380605 3.08658C0.0021664 4.00021 -0.0968502 5.00555 0.0960758 5.97545C0.289002 6.94535 0.765206 7.83627 1.46447 8.53553C2.16373 9.23479 3.05465 9.711 4.02455 9.90392C4.99445 10.0969 5.99979 9.99783 6.91342 9.6194C7.82705 9.24096 8.60794 8.6001 9.15735 7.77785C9.70675 6.9556 10 5.9889 10 5C10 4.34339 9.87067 3.69321 9.6194 3.08658C9.36812 2.47995 8.99983 1.92876 8.53553 1.46447C8.07124 1.00017 7.52005 0.631876 6.91342 0.380602C6.30679 0.129329 5.65661 0 5 0ZM4 7.25V2.75L7 5L4 7.25Z" fill="#FE5D43"/>
</svg>
