<svg width="40" height="40" viewBox="0 0 40 40" fill="none" xmlns="http://www.w3.org/2000/svg">
<path d="M17.8281 2.10167C16.6406 2.08214 15.6641 4.71573 16.8672 5.21105L17.5625 5.49308L18.9531 4.28214L18.8125 2.4462L18.1328 2.16495C18.0469 2.13136 17.9687 2.11183 17.8828 2.10401H17.8281V2.10167ZM28.3281 2.72042H28.1484C27.5703 2.74386 26.9531 2.88605 26.3281 3.16964C24.6719 3.92511 22.9219 5.72198 21.6641 9.08683L13.625 30.8368L13.6172 30.8525V30.8681C13.6875 30.9071 13.8984 31.0165 14.2422 31.1806C15.0078 31.5556 16.1172 32.4071 16.2812 34.2118V34.2509L16.2031 38.5946H23.75C23.7422 37.2196 23.8594 35.8993 24.3828 34.5712C25.2969 32.2743 27.4531 30.2821 31.9609 28.5556C31.9609 28.54 31.9609 28.5556 31.9688 28.5243C31.9922 28.3681 32 28.0556 31.9688 27.665C31.8906 26.8759 31.6562 25.7196 31.2969 24.3681C30.5781 21.6571 29.3594 18.1025 27.9844 14.6103L27.7969 14.1259L28.2031 13.7978C31.0234 11.5946 32.1953 9.39151 32.4062 7.58214C32.6172 5.78058 31.8984 4.34151 30.7422 3.50011C30.0625 3.00714 29.2344 2.71964 28.3281 2.7173V2.72042ZM20.3516 4.09776L20.4062 4.8798L19.8125 5.39542L21.5078 6.09308C21.6016 5.92355 21.7031 5.7587 21.8047 5.59855L22.1172 4.82589L20.3516 4.09776ZM25.7422 5.54776C26.4297 5.54776 26.9922 6.10714 26.9922 6.79776C26.9922 7.48839 26.4297 8.04776 25.7422 8.04776C25.0547 8.04776 24.4922 7.48839 24.4922 6.79776C24.4922 6.10714 25.0547 5.54776 25.7422 5.54776ZM15.0625 9.43058C13.875 9.40714 12.8828 12.04 14.1016 12.54L14.7891 12.8212L16.1797 11.6103L16.0469 9.76651L15.3594 9.48526C15.2734 9.45401 15.1953 9.43839 15.1172 9.43058H15.0625ZM17.5781 11.4228L17.6328 12.204L17.0391 12.7196L18.5938 13.3525L19.0781 12.04L17.5781 11.4228ZM23.1719 12.9696C23.8594 12.9696 24.4219 13.5321 24.4219 14.2196C24.4219 14.9071 23.8594 15.4696 23.1719 15.4696C22.4844 15.4696 21.9219 14.9071 21.9219 14.2196C21.9219 13.5321 22.4844 12.9696 23.1719 12.9696ZM12.25 16.9228C11.0547 16.8993 10.0781 19.5321 11.2812 20.0321L11.9766 20.3134L13.3672 19.1025L13.2266 17.2587L12.5469 16.9775C12.4609 16.9462 12.3828 16.9306 12.3047 16.9228H12.25ZM14.7656 18.915L14.8203 19.6962L14.2266 20.2118L15.8203 20.8603L16.3047 19.5478L14.7656 18.915ZM20.0156 20.4228C20.7031 20.4228 21.2656 20.9853 21.2656 21.6728C21.2656 22.3603 20.7031 22.9228 20.0156 22.9228C19.3281 22.9228 18.7656 22.3603 18.7656 21.6728C18.7656 20.9853 19.3281 20.4228 20.0156 20.4228ZM9.07031 24.6728C7.88281 24.6493 6.9 27.2821 8.10937 27.7821L8.79687 28.0634L10.1875 26.8525L10.0469 25.0087L9.36719 24.7275C9.28125 24.6962 9.20312 24.6806 9.125 24.6728H9.07031ZM11.5859 26.665L11.6406 27.4462L11.0469 27.9618L12.8281 28.6884L13.3594 27.3915L11.5859 26.665ZM17 28.1103C17.6875 28.1103 18.25 28.6728 18.25 29.3603C18.25 30.0478 17.6875 30.6103 17 30.6103C16.3125 30.6103 15.75 30.0478 15.75 29.3603C15.75 28.6728 16.3125 28.1103 17 28.1103Z" fill="#F8F8F8"/>
</svg>
