<svg width="43" height="43" viewBox="0 0 43 43" fill="none" xmlns="http://www.w3.org/2000/svg">
<path d="M9.32187 4.89648L1.98416 4.93008L1.93293 5.62715L16.1582 7.77715L16.3094 7.09688L9.32187 4.89648ZM35.4242 6.47539L35.399 8.96973L35.8189 8.90254L36.2305 8.96973L36.2053 6.47539H35.4242ZM8.08982 7.79395L7.93781 8.88574L5.15205 11.1029L5.30658 20.8115L5.82393 17.4186L6.62598 17.2254H6.64949L6.56299 11.7664L9.24629 9.6332L9.47305 8.00391L8.08982 7.79395ZM35.8189 9.96914L30.2256 10.8426L30.276 11.5396H41.3619L41.4123 10.8426L35.8189 9.96914ZM30.276 12.7658L30.2256 13.4629L35.8189 14.3363L41.4123 13.4629L41.3619 12.7658H30.276ZM35.3402 15.3273L35.3234 17.0742C35.5586 17.1162 35.7937 17.175 36.0373 17.2254L36.3144 17.2926L36.2977 15.3273L35.8189 15.4029L35.3402 15.3273ZM11.2031 17.9057C9.81738 17.8889 8.38965 18.0652 6.91152 18.418L6.67133 19.9969C8.6248 19.7197 13.0508 19.4174 17.3844 21.223C17.7203 21.0887 18.073 20.9627 18.4258 20.8619L18.5266 20.19C16.2926 18.6615 13.8402 17.9393 11.2031 17.9057ZM31.4602 17.9057C28.823 17.9393 26.3707 18.6615 24.1367 20.19L24.2375 20.8619C24.5902 20.9627 24.943 21.0887 25.2789 21.223C29.6125 19.4174 34.0385 19.7197 35.9953 19.9969L35.7518 18.418C34.2736 18.0652 32.8459 17.8889 31.4602 17.9057ZM9.78379 21.1811C8.27963 21.1811 7.08789 21.3322 6.45045 21.4414L5.85836 25.3299L11.9842 26.2621C12.8324 24.5572 14.1258 23.1127 15.7215 22.0965C13.5883 21.3826 11.4887 21.1811 9.78379 21.1811ZM32.8795 21.1811C31.1746 21.1811 29.075 21.3826 26.9418 22.0965C28.5375 23.1127 29.8309 24.5572 30.6791 26.2621L36.8016 25.3299L36.2137 21.4414C35.5754 21.3322 34.3828 21.1811 32.8795 21.1811ZM21.3316 22.0209C17.1408 22.0209 13.7395 25.4223 13.7395 29.6131C13.7395 33.8039 17.1408 37.2053 21.3316 37.2053C25.5225 37.2053 28.9238 33.8039 28.9238 29.6131C28.9238 25.4223 25.5225 22.0209 21.3316 22.0209ZM5.39728 26.4973L5.5115 33.6779L1.58691 40.9846H3.17758L5.96922 35.7775L7.24494 40.9846H8.69199L6.91236 33.7619L6.80066 26.7072L5.39728 26.4973ZM36.4152 26.6232L35.2227 26.808L35.1555 33.0313L33.123 37.7092L33.7445 39.8088L35.8189 35.0217L38.4141 40.9846H39.9426L36.4824 33.0313L36.4152 26.6232ZM12.9248 27.5975C12.5301 28.6137 12.3201 29.7139 12.3201 30.8645C12.3201 35.8615 16.3598 39.8928 21.3316 39.8928C26.3035 39.8928 30.3432 35.8615 30.3432 30.8645C30.3432 29.7139 30.1332 28.6137 29.7385 27.5975C29.8896 28.2441 29.9736 28.9244 29.9736 29.6131C29.9736 34.3498 26.102 38.2971 21.3316 38.2971C16.5613 38.2971 12.6896 34.3498 12.6896 29.6131C12.6896 28.9244 12.7736 28.2441 12.9248 27.5975ZM11.4131 34.0979L9.7166 40.9846H11.875L12.866 36.9533C12.2445 36.0295 11.749 35.1057 11.4131 34.0979ZM31.2502 34.0979C30.9143 35.1057 30.4187 36.0295 29.7973 36.9533L30.7883 40.9846H32.9467L31.2502 34.0979Z" fill="#F8F8F8"/>
</svg>
