<svg width="24" height="24" viewBox="0 0 24 24" fill="none" xmlns="http://www.w3.org/2000/svg">
<g clip-path="url(#clip0_4583_688)">
<path d="M6.40012 21.8967C6.78202 21.8967 7.09162 21.5871 7.09162 21.2052C7.09162 20.8233 6.78202 20.5137 6.40012 20.5137C6.01821 20.5137 5.70862 20.8233 5.70862 21.2052C5.70862 21.5871 6.01821 21.8967 6.40012 21.8967Z" fill="#F8F8F8"/>
<path d="M9.28461 16.584L7.41448 14.7157L8.33061 13.7988L10.2 15.6671L9.28461 16.584ZM5.62048 16.5093L6.53698 15.5932L8.40561 17.4622L7.48911 18.3787L5.62048 16.5093ZM5.03361 17.5545L6.48111 19.002L5.95873 19.5243L4.51123 18.0768L5.03361 17.5545ZM7.85061 19.5093C7.72971 19.6303 7.6474 19.7844 7.61406 19.9521C7.58073 20.1198 7.59788 20.2937 7.66335 20.4517C7.72881 20.6097 7.83965 20.7447 7.98185 20.8397C8.12404 20.9347 8.29122 20.9854 8.46223 20.9854C8.63324 20.9854 8.80042 20.9347 8.94261 20.8397C9.08481 20.7447 9.19565 20.6097 9.26111 20.4517C9.32658 20.2937 9.34373 20.1198 9.3104 19.9521C9.27707 19.7844 9.19475 19.6303 9.07386 19.5093C8.73598 19.1718 8.18848 19.1718 7.85061 19.5093Z" fill="#F8F8F8"/>
<path d="M22.4614 4.51142L22.2754 4.3258C23.5005 3.1618 23.6096 2.84792 22.3808 1.6198C21.1519 0.389798 20.8376 0.500048 19.674 1.7248L19.4888 1.53917C19.6511 1.34042 19.719 1.14242 19.5394 0.962798C19.3181 0.741923 19.0706 0.891548 18.8258 1.13642C18.5813 1.38092 18.4324 1.62805 18.6529 1.84817C18.8329 2.0278 19.0301 1.96105 19.2293 1.79867L19.4228 1.99217C19.1404 2.2933 18.8123 2.64542 18.4185 3.05005L18.198 2.82955C18.3608 2.63042 18.4271 2.43317 18.2483 2.25317C18.0274 2.03342 17.7799 2.18155 17.5361 2.4253C17.2909 2.67055 17.142 2.91767 17.3633 3.13855C17.5429 3.31817 17.7405 3.2503 17.9396 3.08755L18.1628 3.31067C18.1196 3.35417 18.081 3.3943 18.0364 3.43892C17.6929 3.78242 17.3959 4.0813 17.1398 4.3513L16.9084 4.11955C17.0704 3.92042 17.1375 3.72317 16.9575 3.54392C16.737 3.32342 16.4895 3.47155 16.2458 3.71605C16.0013 3.9613 15.8516 4.20842 16.0729 4.42855C16.2529 4.60855 16.4501 4.5418 16.6493 4.37905L16.8904 4.62092C16.152 5.43917 15.8981 5.9608 16.1786 6.54955L11.3535 11.1024C10.7588 10.5242 10.0845 10.046 9.0394 10.1259C6.54077 10.3149 8.17877 13.1604 4.97815 13.3734C3.83365 13.4488 2.7469 13.7 1.9609 14.4879C-0.0378509 16.4859 0.601149 19.2287 2.68615 21.3144C4.77077 23.3994 7.5139 24.0373 9.51227 22.0397C10.5544 20.9983 10.5195 19.1087 10.8679 17.9795C11.3175 16.5204 13.6665 17.0143 13.5589 15.3913C13.5495 15.2383 13.512 15.1415 13.4535 15.0838C13.1614 14.7917 12.3424 15.488 11.85 14.9953C11.6955 14.8415 11.574 14.5697 11.5103 14.1178L17.4506 7.82267C18.0394 8.10355 18.5618 7.84892 19.3804 7.11055L19.6215 7.35167C19.4588 7.55117 19.3924 7.7488 19.5709 7.9288C19.7914 8.1493 20.0396 8.00042 20.2841 7.75517C20.5286 7.51142 20.6775 7.26355 20.4563 7.04267C20.2766 6.86342 20.0794 6.93092 19.8803 7.0933L19.6489 6.8623C19.9193 6.60617 20.2178 6.30917 20.5613 5.9653C20.6059 5.92067 20.6464 5.88242 20.6903 5.83892L20.9119 6.06167C20.7495 6.26117 20.6824 6.45842 20.8628 6.63842C21.0833 6.85892 21.3304 6.71005 21.5749 6.46555C21.8179 6.22105 21.9675 5.97317 21.747 5.75305C21.5678 5.57342 21.3705 5.64055 21.1714 5.80255L20.9513 5.58242C21.3555 5.1883 21.7076 4.86017 22.0084 4.57855L22.2023 4.77167C22.0391 4.9708 21.9728 5.16842 22.1528 5.34805C22.3733 5.5678 22.6204 5.41967 22.8645 5.1748C23.1098 4.9303 23.2583 4.68242 23.0378 4.4623C22.8578 4.28192 22.6605 4.34942 22.4614 4.51142ZM12.0851 15.9883C12.0514 16.0029 12.0169 16.0168 11.9798 16.0322C11.3141 16.3059 10.4006 16.6805 10.0755 17.735C9.95627 18.1202 9.88202 18.5473 9.80365 19.0007C9.64915 19.8939 9.47327 20.906 8.92652 21.4532C8.1619 22.2178 7.2619 22.5313 6.2494 22.3869C5.25827 22.2463 4.2004 21.6575 3.27152 20.7279C2.34227 19.799 1.75352 18.7419 1.61327 17.7512C1.46852 16.739 1.78315 15.8387 2.54665 15.074C3.0709 14.5498 3.83777 14.2802 5.03327 14.2007C7.25927 14.0533 7.7659 12.7569 8.10115 11.8993C8.3629 11.2284 8.4514 11.0019 9.10277 10.9524C9.7804 10.901 10.2345 11.1767 10.7505 11.6717L9.12865 13.2024L10.7981 14.8727L10.8281 14.8408C10.9301 15.146 11.073 15.3909 11.2639 15.5818C11.4839 15.8061 11.7734 15.9493 12.0851 15.9883ZM17.9149 5.40992C17.8702 5.45456 17.8171 5.48996 17.7587 5.51409C17.7003 5.53822 17.6377 5.55062 17.5746 5.55057C17.5114 5.55051 17.4488 5.53802 17.3905 5.51379C17.3321 5.48956 17.2791 5.45408 17.2345 5.40936C17.1898 5.36465 17.1544 5.31158 17.1303 5.25318C17.1062 5.19479 17.0938 5.13221 17.0938 5.06903C17.0939 5.00584 17.1064 4.94329 17.1306 4.88493C17.1548 4.82658 17.1903 4.77356 17.235 4.72892C17.3253 4.63877 17.4478 4.58818 17.5754 4.58828C17.703 4.58839 17.8253 4.63918 17.9155 4.72949C18.0056 4.81979 18.0562 4.94221 18.0561 5.06982C18.056 5.19743 18.0052 5.31977 17.9149 5.40992ZM18.531 3.43255C18.7193 3.24505 19.0238 3.24505 19.2124 3.43255C19.3022 3.52301 19.3525 3.64536 19.3524 3.77283C19.3523 3.9003 19.3017 4.02253 19.2116 4.1128C19.023 4.30105 18.7185 4.3003 18.5318 4.1128C18.4869 4.06827 18.4513 4.01532 18.4269 3.95697C18.4026 3.89863 18.39 3.83605 18.3899 3.77283C18.3899 3.70961 18.4023 3.647 18.4265 3.5886C18.4507 3.53021 18.4862 3.47717 18.531 3.43255ZM19.2761 6.77005C19.1844 6.85323 19.0643 6.89796 18.9405 6.89497C18.8167 6.89197 18.6988 6.84148 18.6112 6.75395C18.5237 6.66643 18.4731 6.54857 18.47 6.42479C18.467 6.30102 18.5116 6.1808 18.5948 6.08905C18.7838 5.90155 19.0879 5.90155 19.2761 6.0898C19.3209 6.1344 19.3565 6.1874 19.3807 6.24577C19.405 6.30414 19.4175 6.36672 19.4175 6.42992C19.4175 6.49313 19.405 6.55571 19.3807 6.61408C19.3565 6.67245 19.3209 6.72545 19.2761 6.77005ZM19.827 2.13692C19.8717 2.09219 19.9247 2.05671 19.9831 2.03252C20.0415 2.00834 20.1041 1.99592 20.1673 1.99599C20.2305 1.99606 20.2931 2.00862 20.3514 2.03293C20.4098 2.05724 20.4627 2.09284 20.5073 2.13767C20.5745 2.20502 20.6203 2.2908 20.6387 2.38416C20.6572 2.47751 20.6476 2.57425 20.6111 2.66214C20.5746 2.75003 20.5128 2.82512 20.4337 2.87791C20.3545 2.9307 20.2614 2.95882 20.1662 2.95871C20.0711 2.95861 19.9781 2.93028 19.899 2.87732C19.8199 2.82435 19.7584 2.74913 19.722 2.66116C19.6857 2.57319 19.6763 2.47643 19.695 2.38312C19.7137 2.2898 19.7596 2.20413 19.827 2.13692ZM20.5718 5.47367C20.4806 5.55942 20.3596 5.6063 20.2345 5.60439C20.1094 5.60247 19.9899 5.55191 19.9014 5.46342C19.8129 5.37492 19.7623 5.25545 19.7604 5.13031C19.7585 5.00517 19.8054 4.88421 19.8911 4.79305C20.0786 4.6063 20.3835 4.60555 20.5721 4.79305C20.6622 4.88343 20.7127 5.00585 20.7127 5.13344C20.7126 5.26103 20.6619 5.38339 20.5718 5.47367ZM21.8674 4.17767C21.8228 4.22231 21.7698 4.25773 21.7115 4.2819C21.6532 4.30607 21.5907 4.31852 21.5276 4.31853C21.4645 4.31855 21.402 4.30614 21.3437 4.282C21.2853 4.25786 21.2324 4.22248 21.1877 4.17786C21.1431 4.13324 21.1077 4.08027 21.0835 4.02197C21.0593 3.96366 21.0469 3.90117 21.0468 3.83806C21.0468 3.77494 21.0592 3.71244 21.0834 3.65412C21.1075 3.59581 21.1429 3.54281 21.1875 3.49817C21.375 3.30917 21.6799 3.30992 21.8678 3.49817C22.0556 3.68642 22.0564 3.98942 21.8674 4.17767Z" fill="#F8F8F8"/>
</g>
<defs>
<clipPath id="clip0_4583_688">
<rect width="24" height="24" fill="white"/>
</clipPath>
</defs>
</svg>
