<svg width="43" height="43" viewBox="0 0 43 43" fill="none" xmlns="http://www.w3.org/2000/svg">
<path d="M7.16684 34.2236L11.9455 19.2056L7.31801 14.1094C7.16688 13.9081 7.09654 13.6575 7.12086 13.407C7.14517 13.1564 7.26237 12.924 7.4494 12.7555C7.63642 12.587 7.87973 12.4946 8.13145 12.4965C8.38317 12.4984 8.62507 12.5944 8.80957 12.7656L12.651 16.9934L15.7181 7.34864C15.8682 6.87243 16.1666 6.45666 16.5697 6.16203C16.9728 5.86741 17.4595 5.70935 17.9588 5.71095H25.0404C25.5397 5.70935 26.0264 5.86741 26.4295 6.16203C26.8326 6.45666 27.131 6.87243 27.2811 7.34864L35.8324 34.2236C35.9447 34.576 35.9722 34.9499 35.9129 35.315C35.8535 35.68 35.7089 36.0259 35.4908 36.3245C35.2726 36.6232 34.9871 36.8662 34.6574 37.0338C34.3278 37.2014 33.9632 37.2888 33.5934 37.2891H9.40586C9.03589 37.2891 8.67113 37.2018 8.34124 37.0343C8.01134 36.8669 7.72562 36.6239 7.50729 36.3252C7.28896 36.0265 7.14419 35.6805 7.08474 35.3154C7.02529 34.9502 7.05285 34.5762 7.16516 34.2236H7.16684ZM11.5139 27.211H19.222L13.511 20.9306L11.5139 27.211ZM25.3629 7.96005C25.3411 7.89184 25.298 7.83239 25.24 7.79039C25.1819 7.74839 25.112 7.72603 25.0404 7.72657H17.9588C17.8872 7.72603 17.8173 7.74839 17.7593 7.79039C17.7012 7.83239 17.6582 7.89184 17.6363 7.96005L14.2165 18.7101L21.9431 27.211H31.4854L25.3629 7.96005ZM9.13711 35.1357C9.16747 35.1787 9.20777 35.2136 9.25457 35.2376C9.30137 35.2616 9.35328 35.2739 9.40586 35.2735H33.5934C33.6462 35.2733 33.6982 35.2607 33.7453 35.2367C33.7923 35.2127 33.8331 35.1779 33.8642 35.1352C33.8953 35.0925 33.9158 35.0431 33.9242 34.9909C33.9326 34.9388 33.9286 34.8854 33.9125 34.8351L32.127 29.2266H10.8722L9.0884 34.8351C9.07142 34.8853 9.06698 34.939 9.07547 34.9914C9.08396 35.0438 9.10512 35.0934 9.13711 35.1357Z" fill="#F8F8F8"/>
</svg>
