<svg width="43" height="43" viewBox="0 0 43 43" fill="none" xmlns="http://www.w3.org/2000/svg">
<path d="M7.16733 34.2236L11.946 19.2056L7.3185 14.1094C7.16736 13.9081 7.09703 13.6575 7.12135 13.407C7.14566 13.1564 7.26286 12.924 7.44988 12.7555C7.63691 12.587 7.88021 12.4946 8.13194 12.4965C8.38366 12.4984 8.62556 12.5944 8.81006 12.7656L12.6515 16.9934L15.7186 7.34864C15.8687 6.87243 16.1671 6.45666 16.5702 6.16203C16.9733 5.86741 17.46 5.70935 17.9593 5.71095H25.0409C25.5402 5.70935 26.0269 5.86741 26.43 6.16203C26.8331 6.45666 27.1315 6.87243 27.2816 7.34864L35.8329 34.2236C35.9451 34.576 35.9727 34.9499 35.9134 35.315C35.854 35.68 35.7094 36.0259 35.4912 36.3245C35.2731 36.6232 34.9876 36.8662 34.6579 37.0338C34.3282 37.2014 33.9637 37.2888 33.5939 37.2891H9.40635C9.03638 37.2891 8.67162 37.2018 8.34172 37.0343C8.01183 36.8669 7.72611 36.6239 7.50778 36.3252C7.28945 36.0265 7.14468 35.6805 7.08523 35.3154C7.02578 34.9502 7.05334 34.5762 7.16565 34.2236H7.16733ZM11.5144 27.211H19.2224L13.5115 20.9306L11.5144 27.211ZM25.3634 7.96005C25.3415 7.89184 25.2985 7.83239 25.2404 7.79039C25.1824 7.74839 25.1125 7.72603 25.0409 7.72657H17.9593C17.8877 7.72603 17.8178 7.74839 17.7598 7.79039C17.7017 7.83239 17.6587 7.89184 17.6368 7.96005L14.217 18.7101L21.9435 27.211H31.4858L25.3634 7.96005ZM9.1376 35.1357C9.16796 35.1787 9.20826 35.2136 9.25506 35.2376C9.30186 35.2616 9.35377 35.2739 9.40635 35.2735H33.5939C33.6467 35.2733 33.6987 35.2607 33.7458 35.2367C33.7928 35.2127 33.8336 35.1779 33.8647 35.1352C33.8957 35.0925 33.9163 35.0431 33.9247 34.9909C33.9331 34.9388 33.9291 34.8854 33.913 34.8351L32.1275 29.2266H10.8727L9.08889 34.8351C9.07191 34.8853 9.06746 34.939 9.07595 34.9914C9.08444 35.0438 9.10561 35.0934 9.1376 35.1357Z" fill="#F8F8F8"/>
</svg>
